<svg width="64" height="64" viewBox="0 0 64 64" fill="none" xmlns="http://www.w3.org/2000/svg">
<path d="M14.188 29.656H8.56298C7.78798 29.656 7.15698 30.287 7.15698 31.062V34.812C7.15698 35.587 7.78798 36.218 8.56298 36.218H14.188C14.963 36.218 15.594 35.587 15.594 34.812V31.062C15.594 30.287 14.963 29.656 14.188 29.656ZM10.906 35.281H8.56298C8.43868 35.2807 8.31954 35.2312 8.23164 35.1434C8.14374 35.0555 8.09425 34.9363 8.09398 34.812V31.062C8.09425 30.9377 8.14374 30.8186 8.23164 30.7307C8.31954 30.6428 8.43868 30.5933 8.56298 30.593H10.907L10.906 35.281ZM14.656 34.813C14.6557 34.9373 14.6062 35.0565 14.5183 35.1444C14.4304 35.2322 14.3113 35.2817 14.187 35.282H11.843V30.594H14.187C14.3113 30.5943 14.4304 30.6438 14.5183 30.7317C14.6062 30.8196 14.6557 30.9387 14.656 31.063V34.813ZM14.188 39.5H8.56298C7.78798 39.5 7.15698 40.131 7.15698 40.906V44.656C7.15698 45.431 7.78798 46.062 8.56298 46.062H14.188C14.963 46.062 15.594 45.431 15.594 44.656V40.906C15.594 40.131 14.963 39.5 14.188 39.5ZM10.906 45.125H8.56298C8.43868 45.1247 8.31954 45.0753 8.23164 44.9874C8.14374 44.8995 8.09425 44.7803 8.09398 44.656V40.906C8.09425 40.7817 8.14374 40.6626 8.23164 40.5747C8.31954 40.4868 8.43868 40.4373 8.56298 40.437H10.907L10.906 45.125ZM14.656 44.656C14.6557 44.7803 14.6062 44.8995 14.5183 44.9874C14.4304 45.0753 14.3113 45.1247 14.187 45.125H11.843V40.437H14.187C14.3113 40.4373 14.4304 40.4868 14.5183 40.5747C14.6062 40.6626 14.6557 40.7817 14.656 40.906V44.656ZM14.188 48.875H8.56298C7.78798 48.875 7.15698 49.506 7.15698 50.281V54.031C7.15698 54.806 7.78798 55.437 8.56298 55.437H14.188C14.963 55.437 15.594 54.806 15.594 54.031V50.281C15.594 49.506 14.963 48.875 14.188 48.875ZM10.906 54.5H8.56298C8.43868 54.4997 8.31954 54.4503 8.23164 54.3624C8.14374 54.2745 8.09425 54.1553 8.09398 54.031V50.281C8.09425 50.1567 8.14374 50.0376 8.23164 49.9497C8.31954 49.8618 8.43868 49.8123 8.56298 49.812H10.907L10.906 54.5ZM14.656 54.031C14.6557 54.1553 14.6062 54.2745 14.5183 54.3624C14.4304 54.4503 14.3113 54.4997 14.187 54.5H11.843V49.812H14.187C14.3113 49.8123 14.4304 49.8618 14.5183 49.9497C14.6062 50.0376 14.6557 50.1567 14.656 50.281V54.031ZM48.406 31.063V34.813C48.406 35.588 49.037 36.219 49.812 36.219H55.437C56.212 36.219 56.843 35.588 56.843 34.813V31.063C56.843 30.288 56.212 29.657 55.437 29.657H49.812C49.4392 29.6573 49.0817 29.8055 48.8181 30.0691C48.5545 30.3327 48.4062 30.6902 48.406 31.063ZM53.094 30.594H55.438C55.5623 30.5943 55.6814 30.6438 55.7693 30.7317C55.8572 30.8196 55.9067 30.9387 55.907 31.063V34.813C55.9067 34.9373 55.8572 35.0565 55.7693 35.1444C55.6814 35.2322 55.5623 35.2817 55.438 35.282H53.094V30.594ZM52.156 35.281H49.812C49.6877 35.2807 49.5685 35.2312 49.4806 35.1434C49.3927 35.0555 49.3432 34.9363 49.343 34.812V31.062C49.3432 30.9377 49.3927 30.8186 49.4806 30.7307C49.5685 30.6428 49.6877 30.5933 49.812 30.593H52.156V35.281ZM55.438 39.5H49.813C49.038 39.5 48.407 40.131 48.407 40.906V44.656C48.407 45.431 49.038 46.062 49.813 46.062H55.438C56.213 46.062 56.844 45.431 56.844 44.656V40.906C56.844 40.131 56.213 39.5 55.438 39.5ZM52.156 45.125H49.812C49.6877 45.1247 49.5685 45.0753 49.4806 44.9874C49.3927 44.8995 49.3432 44.7803 49.343 44.656V40.906C49.3432 40.7817 49.3927 40.6626 49.4806 40.5747C49.5685 40.4868 49.6877 40.4373 49.812 40.437H52.156V45.125ZM55.906 44.656C55.9057 44.7803 55.8562 44.8995 55.7683 44.9874C55.6804 45.0753 55.5613 45.1247 55.437 45.125H53.093V40.437H55.437C55.5613 40.4373 55.6804 40.4868 55.7683 40.5747C55.8562 40.6626 55.9057 40.7817 55.906 40.906V44.656ZM55.438 48.875H49.813C49.038 48.875 48.407 49.506 48.407 50.281V54.031C48.407 54.806 49.038 55.437 49.813 55.437H55.438C56.213 55.437 56.844 54.806 56.844 54.031V50.281C56.844 49.506 56.213 48.875 55.438 48.875ZM52.156 54.5H49.812C49.6877 54.4997 49.5685 54.4503 49.4806 54.3624C49.3927 54.2745 49.3432 54.1553 49.343 54.031V50.281C49.3432 50.1567 49.3927 50.0376 49.4806 49.9497C49.5685 49.8618 49.6877 49.8123 49.812 49.812H52.156V54.5ZM55.906 54.031C55.9057 54.1553 55.8562 54.2745 55.7683 54.3624C55.6804 54.4503 55.5613 54.4997 55.437 54.5H53.093V49.812H55.437C55.5613 49.8123 55.6804 49.8618 55.7683 49.9497C55.8562 50.0376 55.9057 50.1567 55.906 50.281V54.031ZM22.499 36.348C21.972 36.17 21.739 36.068 21.739 35.836C21.739 35.648 21.933 35.486 22.336 35.486C22.735 35.486 23.027 35.588 23.19 35.658L23.397 34.995C23.0638 34.8681 22.7095 34.806 22.353 34.812C21.386 34.812 20.804 35.287 20.804 35.906C20.804 36.433 21.247 36.768 21.928 36.978C22.419 37.133 22.614 37.264 22.614 37.49C22.614 37.727 22.389 37.883 21.964 37.883C21.57 37.883 21.188 37.771 20.939 37.657L20.751 38.336C20.981 38.449 21.443 38.557 21.911 38.557C23.034 38.557 23.562 38.04 23.562 37.431C23.562 36.919 23.222 36.585 22.499 36.348ZM26.276 35.492C26.603 35.492 26.865 35.555 27.052 35.626L27.24 34.975C27.077 34.899 26.713 34.813 26.233 34.813C24.994 34.813 23.997 35.502 23.997 36.742C23.997 37.777 24.726 38.557 26.142 38.557C26.64 38.557 27.023 38.477 27.193 38.401L27.052 37.76C26.8024 37.8382 26.5425 37.8783 26.281 37.879C25.456 37.879 24.97 37.42 24.97 36.693C24.971 35.885 25.542 35.492 26.276 35.492ZM30.254 36.268H28.729V34.872H27.801V38.503H28.729V36.983H30.254V38.503H31.177V34.872H30.254V36.268ZM33.788 34.813C32.58 34.813 31.797 35.626 31.797 36.714C31.797 37.749 32.507 38.563 33.721 38.563C34.918 38.563 35.731 37.84 35.731 36.651C35.73 35.647 35.045 34.813 33.788 34.813ZM33.771 37.911C33.151 37.911 32.775 37.409 32.775 36.698C32.775 35.992 33.139 35.464 33.764 35.464C34.402 35.464 34.754 36.025 34.754 36.677C34.754 37.383 34.395 37.911 33.771 37.911ZM38.144 34.813C36.935 34.813 36.152 35.626 36.152 36.714C36.152 37.749 36.862 38.563 38.076 38.563C39.274 38.563 40.087 37.84 40.087 36.651C40.086 35.647 39.399 34.813 38.144 34.813ZM38.125 37.911C37.505 37.911 37.129 37.409 37.129 36.698C37.129 35.992 37.493 35.464 38.118 35.464C38.757 35.464 39.108 36.025 39.108 36.677C39.108 37.383 38.75 37.911 38.125 37.911ZM41.622 34.872H40.693V38.503H43.25V37.813H41.622V34.872ZM38.563 26.375C38.563 24.6344 37.8715 22.9651 36.6407 21.7343C35.4099 20.5035 33.7406 19.812 32 19.812C30.2594 19.812 28.59 20.5035 27.3592 21.7343C26.1284 22.9651 25.437 24.6344 25.437 26.375C25.437 28.1156 26.1284 29.785 27.3592 31.0158C28.59 32.2466 30.2594 32.938 32 32.938C33.7406 32.938 35.4099 32.2466 36.6407 31.0158C37.8715 29.785 38.563 28.1156 38.563 26.375ZM27.313 26.375C27.3132 25.1314 27.8075 23.9389 28.6871 23.0597C29.5666 22.1805 30.7594 21.6867 32.003 21.687C33.2466 21.6873 34.4391 22.1815 35.3183 23.0611C36.1975 23.9406 36.6912 25.1334 36.691 26.377C36.6907 27.6206 36.1964 28.8132 35.3169 29.6923C34.4374 30.5715 33.2446 31.0653 32.001 31.065C30.7574 31.0647 29.5648 30.5705 28.6857 29.6909C27.8065 28.8114 27.3127 27.6186 27.313 26.375Z" fill="black"/>
<path d="M32.938 27.313V23.563C32.938 23.047 32.516 22.625 32 22.625C31.484 22.625 31.062 23.047 31.062 23.563V26.376H30.124C29.608 26.376 29.186 26.798 29.186 27.314C29.186 27.83 29.608 28.252 30.124 28.252H32C32.2486 28.2507 32.4865 28.1513 32.6622 27.9755C32.8379 27.7996 32.937 27.5615 32.938 27.313Z" fill="black"/>
<path d="M61.063 58.25H60.125V28.25H60.759C61.814 28.25 62.289 27.495 61.818 26.573L58.741 20.552C58.269 19.63 57.02 18.875 55.966 18.875H40.107L32.937 13.071V10.781C36.687 13.773 40.437 4.335 44.187 7.328C40.437 2.034 36.687 9.169 32.937 3.875V2.938C32.938 2.422 32.516 2 32 2C31.484 2 31.062 2.422 31.062 2.938V13.072L23.892 18.876H8.035C6.98 18.876 5.731 19.631 5.26 20.553L2.183 26.574C1.711 27.496 2.187 28.251 3.242 28.251H3.876V58.251H2.938C2.68956 58.2515 2.45144 58.3504 2.27567 58.526C2.0999 58.7015 2.00079 58.9396 2 59.188V61.063C2.00079 61.3114 2.0999 61.5495 2.27567 61.725C2.45144 61.9006 2.68956 61.9995 2.938 62H61.063C61.3113 61.9992 61.5491 61.9002 61.7247 61.7247C61.9002 61.5491 61.9992 61.3113 62 61.063V59.188C61.9995 58.9396 61.9006 58.7014 61.725 58.5257C61.5495 58.3499 61.3114 58.2508 61.063 58.25ZM17 58.25H5.75V28.25H14.687C14.7043 28.414 14.7377 28.567 14.787 28.709C15.032 29.394 15.744 30.125 17.001 30.125L17 58.25ZM42 60.844H22V59.344H42V60.844ZM26.375 58.25V47H31.531V58.25H26.375ZM32.469 58.25V47H37.625V58.25H32.469ZM45.125 58.25H39.5V47H41.375V45.119C41.375 45.119 34.932 41.226 32.888 39.771C32.6257 39.5945 32.3167 39.5003 32.0005 39.5003C31.6843 39.5003 31.3753 39.5945 31.113 39.771C29.069 41.226 22.626 45.119 22.626 45.119V47H24.5V58.25H18.875V28.25H17C16.484 28.25 16.389 27.981 16.786 27.654L31.276 15.72C31.475 15.557 31.738 15.475 32 15.475C32.262 15.475 32.524 15.557 32.724 15.72L47.214 27.654C47.611 27.981 47.516 28.25 47 28.25H45.125V58.25ZM58.25 58.25H47V30.125C48.257 30.125 48.969 29.394 49.214 28.709C49.2633 28.567 49.2967 28.414 49.314 28.25H58.251L58.25 58.25Z" fill="black"/>
<path d="M29.246 52.156H30.594V52.837H29.246V52.156ZM33.406 52.156H34.754V52.837H33.406V52.156Z" fill="black"/>
</svg>
